<mxfile host="app.diagrams.net" modified="2023-03-01T13:16:24.362Z" agent="5.0 (Windows NT 10.0; Win64; x64) AppleWebKit/537.36 (KHTML, like Gecko) Chrome/110.0.0.0 Safari/537.36" etag="XjOzxRF1tK1QZT39LtQz" version="20.8.23" type="github">
  <diagram id="C5RBs43oDa-KdzZeNtuy" name="Page-1">
    <mxGraphModel dx="1434" dy="834" grid="1" gridSize="10" guides="1" tooltips="1" connect="1" arrows="1" fold="1" page="1" pageScale="1" pageWidth="827" pageHeight="1169" math="0" shadow="0">
      <root>
        <mxCell id="WIyWlLk6GJQsqaUBKTNV-0" />
        <mxCell id="WIyWlLk6GJQsqaUBKTNV-1" parent="WIyWlLk6GJQsqaUBKTNV-0" />
        <mxCell id="oLpZEHsgj5VS_98Fc60B-2" value="" style="edgeStyle=orthogonalEdgeStyle;rounded=0;orthogonalLoop=1;jettySize=auto;html=1;" edge="1" parent="WIyWlLk6GJQsqaUBKTNV-1" source="oLpZEHsgj5VS_98Fc60B-0" target="oLpZEHsgj5VS_98Fc60B-1">
          <mxGeometry relative="1" as="geometry" />
        </mxCell>
        <mxCell id="oLpZEHsgj5VS_98Fc60B-0" value="Start" style="ellipse;whiteSpace=wrap;html=1;" vertex="1" parent="WIyWlLk6GJQsqaUBKTNV-1">
          <mxGeometry x="354" y="60" width="120" height="80" as="geometry" />
        </mxCell>
        <mxCell id="oLpZEHsgj5VS_98Fc60B-4" value="" style="edgeStyle=orthogonalEdgeStyle;rounded=0;orthogonalLoop=1;jettySize=auto;html=1;" edge="1" parent="WIyWlLk6GJQsqaUBKTNV-1" source="oLpZEHsgj5VS_98Fc60B-1" target="oLpZEHsgj5VS_98Fc60B-3">
          <mxGeometry relative="1" as="geometry" />
        </mxCell>
        <mxCell id="oLpZEHsgj5VS_98Fc60B-1" value="Pobierz a" style="rounded=0;whiteSpace=wrap;html=1;" vertex="1" parent="WIyWlLk6GJQsqaUBKTNV-1">
          <mxGeometry x="354" y="180" width="120" height="60" as="geometry" />
        </mxCell>
        <mxCell id="oLpZEHsgj5VS_98Fc60B-7" value="" style="edgeStyle=orthogonalEdgeStyle;rounded=0;orthogonalLoop=1;jettySize=auto;html=1;startArrow=none;" edge="1" parent="WIyWlLk6GJQsqaUBKTNV-1" source="oLpZEHsgj5VS_98Fc60B-8" target="oLpZEHsgj5VS_98Fc60B-6">
          <mxGeometry relative="1" as="geometry" />
        </mxCell>
        <mxCell id="oLpZEHsgj5VS_98Fc60B-12" style="edgeStyle=orthogonalEdgeStyle;rounded=0;orthogonalLoop=1;jettySize=auto;html=1;startArrow=none;" edge="1" parent="WIyWlLk6GJQsqaUBKTNV-1" source="oLpZEHsgj5VS_98Fc60B-13" target="oLpZEHsgj5VS_98Fc60B-11">
          <mxGeometry relative="1" as="geometry">
            <Array as="points">
              <mxPoint x="640" y="330" />
            </Array>
          </mxGeometry>
        </mxCell>
        <mxCell id="oLpZEHsgj5VS_98Fc60B-3" value="i&amp;lt;a.długosc" style="rhombus;whiteSpace=wrap;html=1;" vertex="1" parent="WIyWlLk6GJQsqaUBKTNV-1">
          <mxGeometry x="374" y="290" width="80" height="80" as="geometry" />
        </mxCell>
        <mxCell id="oLpZEHsgj5VS_98Fc60B-10" style="edgeStyle=orthogonalEdgeStyle;rounded=0;orthogonalLoop=1;jettySize=auto;html=1;entryX=0;entryY=0.25;entryDx=0;entryDy=0;" edge="1" parent="WIyWlLk6GJQsqaUBKTNV-1" source="oLpZEHsgj5VS_98Fc60B-6" target="oLpZEHsgj5VS_98Fc60B-1">
          <mxGeometry relative="1" as="geometry">
            <Array as="points">
              <mxPoint x="220" y="195" />
            </Array>
          </mxGeometry>
        </mxCell>
        <mxCell id="oLpZEHsgj5VS_98Fc60B-6" value="suma=suma+a[i]" style="rounded=0;whiteSpace=wrap;html=1;" vertex="1" parent="WIyWlLk6GJQsqaUBKTNV-1">
          <mxGeometry x="160" y="300" width="120" height="60" as="geometry" />
        </mxCell>
        <mxCell id="oLpZEHsgj5VS_98Fc60B-9" value="" style="edgeStyle=orthogonalEdgeStyle;rounded=0;orthogonalLoop=1;jettySize=auto;html=1;endArrow=none;" edge="1" parent="WIyWlLk6GJQsqaUBKTNV-1" source="oLpZEHsgj5VS_98Fc60B-3" target="oLpZEHsgj5VS_98Fc60B-8">
          <mxGeometry relative="1" as="geometry">
            <mxPoint x="374" y="330" as="sourcePoint" />
            <mxPoint x="300" y="330" as="targetPoint" />
          </mxGeometry>
        </mxCell>
        <mxCell id="oLpZEHsgj5VS_98Fc60B-8" value="Tak" style="text;html=1;align=center;verticalAlign=middle;resizable=0;points=[];autosize=1;strokeColor=none;fillColor=none;" vertex="1" parent="WIyWlLk6GJQsqaUBKTNV-1">
          <mxGeometry x="315" y="315" width="40" height="30" as="geometry" />
        </mxCell>
        <mxCell id="oLpZEHsgj5VS_98Fc60B-16" value="" style="edgeStyle=orthogonalEdgeStyle;rounded=0;orthogonalLoop=1;jettySize=auto;html=1;" edge="1" parent="WIyWlLk6GJQsqaUBKTNV-1" source="oLpZEHsgj5VS_98Fc60B-11" target="oLpZEHsgj5VS_98Fc60B-15">
          <mxGeometry relative="1" as="geometry" />
        </mxCell>
        <mxCell id="oLpZEHsgj5VS_98Fc60B-11" value="Wyświetl sume" style="rounded=0;whiteSpace=wrap;html=1;" vertex="1" parent="WIyWlLk6GJQsqaUBKTNV-1">
          <mxGeometry x="580" y="380" width="120" height="60" as="geometry" />
        </mxCell>
        <mxCell id="oLpZEHsgj5VS_98Fc60B-14" value="" style="edgeStyle=orthogonalEdgeStyle;rounded=0;orthogonalLoop=1;jettySize=auto;html=1;endArrow=none;" edge="1" parent="WIyWlLk6GJQsqaUBKTNV-1" source="oLpZEHsgj5VS_98Fc60B-3" target="oLpZEHsgj5VS_98Fc60B-13">
          <mxGeometry relative="1" as="geometry">
            <mxPoint x="454" y="330" as="sourcePoint" />
            <mxPoint x="640" y="380" as="targetPoint" />
          </mxGeometry>
        </mxCell>
        <mxCell id="oLpZEHsgj5VS_98Fc60B-13" value="Nie" style="text;html=1;align=center;verticalAlign=middle;resizable=0;points=[];autosize=1;strokeColor=none;fillColor=none;" vertex="1" parent="WIyWlLk6GJQsqaUBKTNV-1">
          <mxGeometry x="545" y="315" width="40" height="30" as="geometry" />
        </mxCell>
        <mxCell id="oLpZEHsgj5VS_98Fc60B-15" value="Stop" style="ellipse;whiteSpace=wrap;html=1;" vertex="1" parent="WIyWlLk6GJQsqaUBKTNV-1">
          <mxGeometry x="580" y="500" width="120" height="80" as="geometry" />
        </mxCell>
      </root>
    </mxGraphModel>
  </diagram>
</mxfile>
